<svg width="1152" height="700" viewBox="0 0 1152 700" fill="none" xmlns="http://www.w3.org/2000/svg">
    <rect width="1152" height="700" fill="white"/>
    <path d="M691.106 90L481.331 203.637C484.918 209.813 487.229 216.646 488.127 223.732C489.025 230.818 488.492 238.011 486.559 244.887C484.626 251.763 481.333 258.181 476.874 263.76C472.415 269.34 466.882 273.968 460.603 277.37C454.323 280.771 447.424 282.878 440.316 283.564C433.207 284.251 426.033 283.503 419.218 281.366C412.404 279.229 406.088 275.745 400.644 271.122C395.2 266.499 390.74 260.83 387.527 254.451L316 293.198L501.277 635.287L876.383 432.089L691.106 90Z" fill="#F2F2F2"/>
    <path d="M451.006 387.635L542.345 402.175L543.598 394.3L452.26 379.76L451.006 387.635Z" fill="#F2F2F2"/>
    <path d="M448.5 403.384L539.838 417.924L541.091 410.05L449.753 395.509L448.5 403.384Z" fill="#F2F2F2"/>
    <path d="M445.993 419.133L537.332 433.674L538.585 425.799L447.247 411.259L445.993 419.133Z" fill="#F2F2F2"/>
    <path d="M453.561 479.742L538.45 443.025L535.285 435.706L450.396 472.423L453.561 479.742Z" fill="#F2F2F2"/>
    <path d="M459.891 494.379L544.78 457.662L541.615 450.343L456.726 487.061L459.891 494.379Z" fill="#F2F2F2"/>
    <path d="M466.218 509.017L551.108 472.299L547.943 464.98L463.053 501.698L466.218 509.017Z" fill="#F2F2F2"/>
    <path d="M501.599 420.826L287.846 361.397L259.999 461.556L473.752 520.985L501.599 420.826Z" fill="#3F3D56"/>
    <path d="M345.013 392.424L297.376 379.18L292.622 396.28L340.258 409.524L345.013 392.424Z" fill="#6C63FF"/>
    <path d="M475.327 460.893L300.66 412.331L299.472 416.606L474.138 465.168L475.327 460.893Z" fill="#6C63FF"/>
    <path d="M471.931 473.107L297.264 424.546L295.906 429.431L470.573 477.993L471.931 473.107Z" fill="#6C63FF"/>
    <path d="M468.365 485.933L293.698 437.371L292.68 441.035L467.347 489.597L468.365 485.933Z" fill="#6C63FF"/>
    <path d="M465.139 497.536L290.472 448.975L289.114 453.86L463.781 502.422L465.139 497.536Z" fill="#6C63FF"/>
    <g filter="url(#filter0_d)">
        <path d="M423.245 282.487L310.986 270C309.339 269.817 308.153 268.333 308.336 266.687L317.647 182.982C317.83 181.335 319.313 180.149 320.96 180.332L449.497 194.63C451.143 194.813 452.33 196.297 452.147 197.943L443.863 272.414L442.787 281.551C442.595 283.181 441.129 284.354 439.496 284.184L423.245 282.487Z" fill="white"/>
        <path d="M423.135 283.481L423.142 283.482L439.393 285.178C441.569 285.406 443.525 283.841 443.781 281.668L444.856 272.531L444.857 272.525L453.141 198.054C453.385 195.858 451.803 193.88 449.607 193.636L321.071 179.338C318.875 179.094 316.897 180.676 316.653 182.872L307.342 266.576C307.098 268.772 308.68 270.75 310.875 270.994L423.135 283.481Z" stroke="black" stroke-opacity="0.44" stroke-width="2"/>
    </g>
    <g opacity="0.7">
        <path opacity="0.7" d="M449.023 226.002L314.523 211.041L314.385 212.276L448.885 227.237L449.023 226.002Z" fill="#7A7A7A"/>
    </g>
    <g opacity="0.7">
        <path opacity="0.7" d="M449.764 219.339L315.264 204.378L315.127 205.613L449.627 220.574L449.764 219.339Z" fill="#7A7A7A"/>
    </g>
    <g opacity="0.7">
        <path opacity="0.7" d="M450.505 212.677L316.005 197.716L315.868 198.951L450.368 213.912L450.505 212.677Z" fill="#7A7A7A"/>
    </g>
    <g opacity="0.7">
        <path opacity="0.7" d="M451.246 206.015L316.747 191.054L316.609 192.289L451.109 207.25L451.246 206.015Z" fill="#7A7A7A"/>
    </g>
    <g opacity="0.7">
        <path opacity="0.7" d="M451.987 199.353L317.487 184.392L317.35 185.627L451.85 200.588L451.987 199.353Z" fill="#7A7A7A"/>
    </g>
    <g opacity="0.7">
        <path opacity="0.7" d="M448.282 232.665L313.782 217.704L313.644 218.939L448.144 233.9L448.282 232.665Z" fill="#7A7A7A"/>
    </g>
    <g opacity="0.7">
        <path opacity="0.7" d="M447.54 239.331L313.04 224.37L312.903 225.605L447.403 240.566L447.54 239.331Z" fill="#7A7A7A"/>
    </g>
    <g opacity="0.7">
        <path opacity="0.7" d="M446.799 245.996L312.299 231.035L312.162 232.27L446.662 247.231L446.799 245.996Z" fill="#7A7A7A"/>
    </g>
    <g opacity="0.7">
        <path opacity="0.7" d="M446.057 252.662L311.557 237.701L311.42 238.936L445.92 253.897L446.057 252.662Z" fill="#7A7A7A"/>
    </g>
    <g opacity="0.7">
        <path opacity="0.7" d="M445.316 259.326L310.816 244.365L310.679 245.6L445.178 260.561L445.316 259.326Z" fill="#7A7A7A"/>
    </g>
    <g opacity="0.7">
        <path opacity="0.7" d="M444.574 265.991L310.074 251.03L309.937 252.265L444.437 267.227L444.574 265.991Z" fill="#7A7A7A"/>
    </g>
    <g opacity="0.7">
        <path opacity="0.7" d="M443.81 272.655L309.332 257.696L309.194 258.931L443.672 273.89L443.81 272.655Z" fill="#7A7A7A"/>
    </g>
    <g opacity="0.7">
        <path opacity="0.7" d="M442.966 279.309L308.592 264.362L308.454 265.597L442.828 280.544L442.966 279.309Z" fill="#7A7A7A"/>
    </g>
    <path d="M334.435 187.522L333.503 187.418L324.154 271.465L325.086 271.568L334.435 187.522Z" fill="#7A7A7A"/>
    <path d="M355.014 189.811L354.082 189.708L344.733 273.754L345.665 273.858L355.014 189.811Z" fill="#7A7A7A"/>
    <path d="M375.592 192.1L374.661 191.996L365.312 276.043L366.244 276.146L375.592 192.1Z" fill="#7A7A7A"/>
    <path d="M396.172 194.39L395.24 194.286L385.891 278.332L386.823 278.436L396.172 194.39Z" fill="#7A7A7A"/>
    <path d="M416.751 196.678L415.819 196.574L406.47 280.621L407.402 280.725L416.751 196.678Z" fill="#7A7A7A"/>
    <path d="M427.981 283.014L427.049 282.911L436.398 198.864L437.334 198.928L427.981 283.014Z" fill="#7A7A7A"/>
    <path d="M320.619 183.617C321.287 183.692 321.89 183.209 321.964 182.54C322.038 181.871 321.557 181.268 320.888 181.194C320.22 181.119 319.617 181.602 319.543 182.271C319.468 182.94 319.95 183.543 320.619 183.617Z" fill="#FF5252"/>
    <path d="M324.085 184.003C324.754 184.077 325.356 183.595 325.431 182.926C325.505 182.256 325.023 181.654 324.355 181.579C323.686 181.505 323.084 181.987 323.009 182.656C322.935 183.326 323.416 183.928 324.085 184.003Z" fill="#FFFF00"/>
    <path d="M327.551 184.389C328.22 184.463 328.822 183.981 328.897 183.311C328.971 182.642 328.49 182.039 327.821 181.965C327.152 181.891 326.55 182.373 326.476 183.042C326.401 183.711 326.883 184.314 327.551 184.389Z" fill="#69F0AE"/>
    <path d="M583.827 428L366 470.114L385.733 572.181L603.56 530.067L583.827 428Z" fill="#3F3D56"/>
    <path d="M431.004 472.396L382.459 481.781L385.829 499.207L434.373 489.822L431.004 472.396Z" fill="#6C63FF"/>
    <path d="M578.176 475.578L400.18 509.991L401.022 514.347L579.018 479.934L578.176 475.578Z" fill="#6C63FF"/>
    <path d="M580.582 488.025L402.587 522.438L403.549 527.417L581.545 493.004L580.582 488.025Z" fill="#6C63FF"/>
    <path d="M583.109 501.095L405.114 535.508L405.835 539.242L583.831 504.829L583.109 501.095Z" fill="#6C63FF"/>
    <path d="M585.396 512.919L407.4 547.332L408.363 552.311L586.358 517.898L585.396 512.919Z" fill="#6C63FF"/>
    <path d="M333.906 432L127 512.076L164.521 609.026L371.427 528.95L333.906 432Z" fill="#3F3D56"/>
    <path d="M191.378 502.794L145.268 520.639L151.674 537.192L197.784 519.346L191.378 502.794Z" fill="#6C63FF"/>
    <path d="M336.782 479.826L167.71 545.259L169.312 549.397L338.384 483.964L336.782 479.826Z" fill="#6C63FF"/>
    <path d="M341.358 491.649L172.286 557.082L174.116 561.811L343.188 496.378L341.358 491.649Z" fill="#6C63FF"/>
    <path d="M346.162 504.063L177.091 569.497L178.463 573.044L347.535 507.61L346.162 504.063Z" fill="#6C63FF"/>
    <path d="M350.509 515.295L181.438 580.729L183.268 585.458L352.339 520.024L350.509 515.295Z" fill="#6C63FF"/>
    <path d="M273.956 373L53 393.013L62.3776 496.547L283.334 476.534L273.956 373Z" fill="#3F3D56"/>
    <path d="M117.446 401.815L68.2039 406.275L69.8049 423.952L119.047 419.492L117.446 401.815Z" fill="#6C63FF"/>
    <path d="M263.553 419.769L83.0005 436.123L83.4007 440.542L263.954 424.188L263.553 419.769Z" fill="#6C63FF"/>
    <path d="M264.697 432.395L84.144 448.749L84.6015 453.799L265.154 437.445L264.697 432.395Z" fill="#6C63FF"/>
    <path d="M265.897 445.653L85.3447 462.006L85.6878 465.794L266.241 449.44L265.897 445.653Z" fill="#6C63FF"/>
    <path d="M266.984 457.647L86.4312 474.001L86.8886 479.051L267.441 462.698L266.984 457.647Z" fill="#6C63FF"/>
    <path d="M392.524 316.646L384.254 318.538C382.763 318.879 381.83 320.364 382.171 321.853L389.164 352.418C389.505 353.907 390.99 354.838 392.482 354.497L400.752 352.605C402.243 352.264 403.176 350.78 402.835 349.29L395.841 318.725C395.501 317.236 394.015 316.305 392.524 316.646Z" fill="#6C63FF"/>
    <path d="M413.357 289.049L404.907 290.983C403.383 291.331 402.425 292.823 402.766 294.314L414.721 346.567C415.063 348.058 416.574 348.985 418.098 348.636L426.548 346.702C428.072 346.354 429.03 344.862 428.689 343.371L416.733 291.119C416.392 289.627 414.88 288.701 413.357 289.049Z" fill="#6C63FF"/>
    <path d="M436.177 268.504L427.727 270.437C426.203 270.786 425.243 272.27 425.582 273.751L440.877 340.601C441.216 342.083 442.726 343.001 444.25 342.652L452.7 340.719C454.224 340.37 455.184 338.887 454.845 337.405L439.549 270.555C439.21 269.074 437.7 268.155 436.177 268.504Z" fill="#6C63FF"/>
    <path d="M458.758 248.013L450.488 249.905C448.997 250.246 448.064 251.728 448.404 253.215L467.027 334.608C467.367 336.095 468.852 337.023 470.343 336.682L478.613 334.79C480.105 334.449 481.038 332.967 480.697 331.48L462.074 250.087C461.734 248.6 460.25 247.672 458.758 248.013Z" fill="#6C63FF"/>
    <path d="M478.834 216.837L470.563 218.729C469.072 219.07 468.14 220.555 468.481 222.045L492.881 328.685C493.222 330.176 494.707 331.107 496.198 330.766L504.468 328.874C505.959 328.533 506.892 327.048 506.551 325.557L482.151 218.917C481.81 217.427 480.325 216.495 478.834 216.837Z" fill="#6C63FF"/>
    <path d="M393.841 314.468L385.391 316.402C383.867 316.75 382.911 318.25 383.254 319.752L390.305 350.57C390.649 352.072 392.163 353.006 393.686 352.658L402.136 350.724C403.66 350.376 404.617 348.876 404.273 347.374L397.222 316.556C396.878 315.055 395.364 314.12 393.841 314.468Z" stroke="#3F3D56" stroke-miterlimit="10"/>
    <path d="M414.79 286.845L406.52 288.737C405.029 289.078 404.098 290.57 404.441 292.069L416.458 344.591C416.801 346.09 418.288 347.029 419.779 346.688L428.05 344.795C429.541 344.454 430.472 342.962 430.129 341.463L418.111 288.942C417.768 287.442 416.282 286.504 414.79 286.845Z" stroke="#3F3D56" stroke-miterlimit="10"/>
    <path d="M437.236 265.76L429.146 267.611C427.687 267.945 426.783 269.431 427.126 270.931L442.61 338.606C442.953 340.106 444.414 341.051 445.873 340.717L453.963 338.866C455.422 338.532 456.327 337.046 455.983 335.546L440.499 267.871C440.156 266.371 438.695 265.426 437.236 265.76Z" stroke="#3F3D56" stroke-miterlimit="10"/>
    <path d="M459.827 245.579L451.737 247.43C450.278 247.764 449.373 249.248 449.715 250.745L468.466 332.695C468.809 334.192 470.269 335.135 471.728 334.802L479.818 332.95C481.277 332.617 482.182 331.133 481.839 329.636L463.089 247.685C462.746 246.188 461.286 245.245 459.827 245.579Z" stroke="#3F3D56" stroke-miterlimit="10"/>
    <path d="M479.97 214.7L471.88 216.551C470.421 216.885 469.515 218.367 469.857 219.861L494.322 326.784C494.664 328.279 496.124 329.22 497.582 328.886L505.673 327.035C507.132 326.701 508.037 325.219 507.695 323.725L483.231 216.802C482.889 215.307 481.429 214.366 479.97 214.7Z" stroke="#3F3D56" stroke-miterlimit="10"/>
    <path d="M386.339 301.798L407.413 274.226L430.277 253.428L453.018 233.137L473.311 202.151" stroke="#3F3D56" stroke-miterlimit="10"/>
    <path d="M386.48 305.832C387.875 305.513 388.732 304.057 388.394 302.579C388.056 301.102 386.651 300.164 385.256 300.483C383.861 300.802 383.004 302.258 383.342 303.735C383.68 305.213 385.085 306.151 386.48 305.832Z" fill="#F2F2F2"/>
    <path d="M407.736 278.451C409.296 278.095 410.271 276.541 409.914 274.982C409.557 273.423 408.004 272.448 406.445 272.805C404.885 273.162 403.911 274.715 404.267 276.274C404.624 277.833 406.177 278.808 407.736 278.451Z" fill="#F2F2F2"/>
    <path d="M430.501 256.98C431.814 256.68 432.635 255.372 432.335 254.059C432.034 252.746 430.726 251.925 429.413 252.225C428.1 252.526 427.279 253.834 427.58 255.147C427.88 256.46 429.188 257.281 430.501 256.98Z" fill="#F2F2F2"/>
    <path d="M453.173 236.468C454.568 236.149 455.455 234.826 455.155 233.513C454.854 232.2 453.48 231.394 452.085 231.714C450.69 232.033 449.802 233.356 450.103 234.669C450.403 235.982 451.777 236.788 453.173 236.468Z" fill="#F2F2F2"/>
    <path d="M473.303 206.218C474.616 205.918 475.391 204.41 475.035 202.851C474.678 201.292 473.324 200.271 472.011 200.572C470.698 200.872 469.923 202.379 470.28 203.939C470.637 205.498 471.99 206.518 473.303 206.218Z" fill="#F2F2F2"/>
    <path d="M387.032 304.142C388.427 303.823 389.314 302.5 389.014 301.187C388.714 299.874 387.339 299.068 385.944 299.387C384.549 299.706 383.662 301.03 383.962 302.343C384.262 303.656 385.637 304.461 387.032 304.142Z" stroke="#3F3D56" stroke-miterlimit="10"/>
    <path d="M408.288 276.761C409.683 276.442 410.555 275.053 410.236 273.657C409.917 272.262 408.527 271.39 407.132 271.709C405.737 272.029 404.865 273.418 405.184 274.813C405.503 276.208 406.893 277.081 408.288 276.761Z" stroke="#3F3D56" stroke-miterlimit="10"/>
    <path d="M430.892 255.953C432.205 255.652 433.01 254.278 432.691 252.883C432.372 251.488 431.049 250.6 429.736 250.901C428.423 251.201 427.617 252.576 427.936 253.971C428.255 255.366 429.579 256.253 430.892 255.953Z" stroke="#3F3D56" stroke-miterlimit="10"/>
    <path d="M453.415 235.475C454.728 235.175 455.549 233.867 455.248 232.554C454.948 231.241 453.64 230.42 452.327 230.72C451.014 231.021 450.193 232.329 450.493 233.642C450.794 234.955 452.102 235.776 453.415 235.475Z" stroke="#3F3D56" stroke-miterlimit="10"/>
    <path d="M473.409 204.63C474.804 204.311 475.676 202.921 475.357 201.526C475.038 200.131 473.648 199.259 472.253 199.578C470.858 199.897 469.986 201.287 470.305 202.682C470.624 204.077 472.014 204.949 473.409 204.63Z" stroke="#3F3D56" stroke-miterlimit="10"/>
    <path d="M447.231 152.959L1009.26 176.98C1009.26 176.98 1097.33 457.222 1031.68 577.326L499.271 635.777C499.271 635.777 611.357 427.597 447.231 152.959Z" fill="white" stroke="#4F4F4F" stroke-width="2" stroke-linecap="round" stroke-linejoin="round"/>
    <path d="M535.053 283.064L1006.58 275.638" stroke="#2F2E41" stroke-opacity="0.4" stroke-width="2" stroke-miterlimit="10" stroke-linecap="round" stroke-linejoin="round"/>
    <path d="M547.429 320.192L1023.9 310.291" stroke="#2F2E41" stroke-opacity="0.4" stroke-width="2" stroke-miterlimit="10" stroke-linecap="round" stroke-linejoin="round"/>
    <path d="M460.798 172.918L1011.53 193.957" stroke="#2F2E41" stroke-opacity="0.4" stroke-width="2" stroke-miterlimit="10" stroke-linecap="round" stroke-linejoin="round"/>
    <path opacity="0.2" d="M876.256 459.627C876.256 460.815 876.248 462.003 876.216 463.175V463.183C876.169 466.085 876.057 468.94 875.874 471.779C875.682 474.825 875.422 477.831 875.092 480.797C871.863 509.798 862.12 535.067 848.446 552.339C840.696 562.139 831.679 569.371 821.864 573.262C818.867 574.456 815.754 575.335 812.575 575.886C810.107 576.311 807.608 576.524 805.104 576.524C793.36 576.524 782.277 571.851 772.518 563.558C753.662 547.571 739.709 518.131 735.379 482.958V482.95C734.646 477.002 734.183 470.902 734.032 464.666C733.984 463 733.96 461.32 733.96 459.627C733.96 395.062 765.813 342.722 805.104 342.722C814.409 342.722 823.299 345.656 831.447 350.999C831.687 351.15 831.926 351.31 832.157 351.477C836.64 354.542 840.748 358.123 844.396 362.146C846.741 364.714 848.934 367.417 850.966 370.24C853.57 373.867 855.946 377.654 858.078 381.578C859.864 384.848 861.546 388.292 863.093 391.889V391.897C864.703 395.596 866.178 399.45 867.518 403.459V403.467C871.56 415.73 874.197 428.413 875.379 441.271C875.961 447.251 876.256 453.383 876.256 459.627Z" fill="black"/>
    <path d="M490.826 162.165C491.436 164.451 490.704 167.104 489.195 168.088C487.689 169.069 485.978 168.017 485.37 165.739C484.763 163.461 485.487 160.814 486.991 159.823C488.498 158.83 490.216 159.878 490.826 162.165Z" fill="#BAC5FF"/>
    <path d="M503.617 161.965C504.227 164.252 503.495 166.904 501.986 167.888C500.479 168.869 498.769 167.817 498.161 165.539C497.554 163.261 498.278 160.614 499.782 159.623C501.289 158.63 503.007 159.678 503.617 161.965Z" fill="#BAC5FF"/>
    <path d="M478.036 162.365C478.645 164.652 477.914 167.305 476.404 168.288C474.898 169.269 473.187 168.217 472.58 165.939C471.972 163.662 472.696 161.014 474.2 160.023C475.707 159.031 477.426 160.078 478.036 162.365Z" fill="#BAC5FF"/>
    <path d="M877.328 392.221L881.466 404.536L885.947 404.882L881.919 374.18C883.415 354.789 875.321 337.682 855.932 336.185H855.932C849.43 335.683 842.996 337.785 838.044 342.028C833.092 346.271 830.028 352.307 829.526 358.809L827.24 388.438C826.997 391.578 828.012 394.687 830.062 397.079C832.111 399.471 835.026 400.952 838.167 401.194L872.929 403.877L877.328 392.221Z" fill="#2F2E41"/>
    <path d="M881.698 462.366C881.698 462.366 885.378 472.356 891.687 473.933C897.995 475.51 944.785 486.551 944.785 486.551C944.785 486.551 985.792 487.603 973.174 496.541C960.557 505.479 940.053 496.541 940.053 496.541C940.053 496.541 880.121 489.18 875.389 481.294C872.274 475.926 869.635 470.297 867.503 464.469L881.698 462.366Z" fill="#FBBEBE"/>
    <path d="M861.72 418.2C861.72 418.2 891.687 467.098 888.007 468.149C884.326 469.201 850.154 480.242 848.577 476.036C847 471.83 847 452.376 847 452.376L861.72 418.2Z" fill="#FF6584"/>
    <path opacity="0.15" d="M861.72 418.2C861.72 418.2 891.687 467.098 888.007 468.149C884.326 469.201 850.154 480.242 848.577 476.036C847 471.83 847 452.376 847 452.376L861.72 418.2Z" fill="black"/>
    <path d="M779.391 402.016L734.912 463.868C734.912 463.868 705.335 490.287 716.42 493.46C727.505 496.633 745.099 471.048 745.099 471.048L796.366 406.301L779.391 402.016Z" fill="#FBBEBE"/>
    <path d="M870.657 379.293C870.657 379.293 857.514 399.272 858.566 404.004C858.566 404.004 857.514 407.159 859.091 409.262C860.669 411.365 860.143 423.984 860.143 423.984L854.886 431.345L848.051 408.736L844.897 384.551C844.897 384.551 851.994 374.824 850.943 370.092C849.891 365.36 870.657 379.293 870.657 379.293Z" fill="#FBBEBE"/>
    <path d="M848.446 552.339C840.696 562.139 831.679 569.371 821.864 573.262C818.867 574.456 815.754 575.335 812.575 575.886C814.258 538.56 816.195 505.269 817.558 502.327C820.716 495.493 829.127 492.862 829.127 492.862C829.127 492.862 829.957 495.086 831.344 498.954C834.94 509.033 842.291 530.275 848.446 552.339Z" fill="#FF6584"/>
    <path opacity="0.15" d="M848.446 552.339C840.696 562.139 831.679 569.371 821.864 573.262C818.867 574.456 815.754 575.335 812.575 575.886C814.258 538.56 816.195 505.269 817.558 502.327C820.716 495.493 829.127 492.862 829.127 492.862C829.127 492.862 829.957 495.086 831.344 498.954C834.94 509.033 842.291 530.275 848.446 552.339Z" fill="black"/>
    <path d="M863.823 382.447C874.566 382.447 883.275 373.738 883.275 362.994C883.275 352.25 874.566 343.54 863.823 343.54C853.08 343.54 844.371 352.25 844.371 362.994C844.371 373.738 853.08 382.447 863.823 382.447Z" fill="#FBBEBE"/>
    <path d="M855.415 452.904C851.779 456.365 849.108 458.917 847.146 460.862C843.16 464.801 842.091 466.213 841.741 467.624C841.214 469.729 838.591 469.729 838.591 469.729L831.344 498.953L823.339 531.24C823.339 531.24 822.82 549.181 821.864 573.262C818.866 574.456 815.754 575.335 812.575 575.885C810.107 576.31 807.608 576.524 805.104 576.523C793.36 576.523 782.277 571.85 772.518 563.558C772.654 532.763 772.343 501.274 772.343 501.274C772.343 501.274 763.931 487.607 792.849 460.79C792.849 460.79 797.41 447.49 802.13 434.134C806.874 420.674 811.778 407.158 812.304 407.158C812.655 407.158 815.166 403.945 818.355 399.663C821.154 395.915 824.479 391.338 827.317 387.375C830.977 382.304 833.855 378.245 833.855 378.245C833.855 378.245 842.49 378.245 846.19 382.654C846.798 383.362 847.254 384.187 847.529 385.078C848.422 387.989 850.463 395.094 852.512 402.302C855.263 412.006 858.038 421.878 858.038 421.878L859.449 410.013C859.449 410.013 863.826 416.097 863.826 420.825C863.826 421.081 863.834 421.368 863.842 421.694C864.073 427.364 865.851 442.953 855.415 452.904Z" fill="#FF6584"/>
    <path d="M840.165 382.447L833.856 378.241C833.856 378.241 807.57 394.015 789.169 395.066C770.769 396.118 771.295 406.633 778.655 413.994C786.015 421.355 814.93 446.592 815.982 440.283C817.033 433.974 840.165 382.447 840.165 382.447Z" fill="#FF6584"/>
    <path d="M874.822 338.713C870.594 337.287 860.366 336.528 858.869 336.412C855.264 336.134 851.64 336.569 848.203 337.691C844.766 338.814 841.584 340.602 838.838 342.955C836.092 345.307 833.837 348.178 832.2 351.402C830.564 354.626 829.578 358.141 829.3 361.746L815.991 399.482L836.107 401.035L840.944 387.013L845.14 401.732L855.266 402.514L856.8 393.982L859.564 402.846L870.843 403.716C863.871 383.949 860.722 366.178 872.65 356.28C880.066 357.879 886.541 356.36 887.885 352.376C889.433 347.786 883.585 341.669 874.822 338.713Z" fill="#2F2E41"/>
    <path opacity="0.2" d="M801.185 214.216L762.67 203.926L752.381 242.445L790.896 252.735L801.185 214.216Z" fill="#93A3FC"/>
    <path d="M787.241 256.354C793.738 256.354 799.005 251.086 799.005 244.588C799.005 238.09 793.738 232.822 787.241 232.822C780.743 232.822 775.476 238.09 775.476 244.588C775.476 251.086 780.743 256.354 787.241 256.354Z" stroke="#99999F" stroke-width="2" stroke-miterlimit="10"/>
    <path d="M711.579 415.486L559.805 419.51L561.691 490.628L713.465 486.603L711.579 415.486Z" fill="#3F3D56"/>
    <path d="M603.434 428.335L569.61 429.231L569.932 441.373L603.756 440.477L603.434 428.335Z" fill="#6C63FF"/>
    <path d="M702.434 446.973L578.412 450.261L578.493 453.296L702.514 450.008L702.434 446.973Z" fill="#6C63FF"/>
    <path d="M702.664 455.646L578.642 458.934L578.734 462.403L702.756 459.115L702.664 455.646Z" fill="#6C63FF"/>
    <path d="M702.905 464.752L578.884 468.04L578.953 470.642L702.974 467.354L702.905 464.752Z" fill="#6C63FF"/>
    <path d="M703.123 472.991L579.102 476.28L579.194 479.749L703.215 476.46L703.123 472.991Z" fill="#6C63FF"/>
    <path d="M941.529 476.128C941.529 476.128 998.12 428.471 1030.71 476.128Z" fill="#F2F2F2"/>
    <path d="M947.976 449.15H941.771C940.652 449.15 939.745 450.056 939.745 451.174V474.105C939.745 475.222 940.652 476.128 941.771 476.128H947.976C949.095 476.128 950.002 475.222 950.002 474.105V451.174C950.002 450.056 949.095 449.15 947.976 449.15Z" fill="#6C63FF"/>
    <path d="M967.329 432.874H960.99C959.847 432.874 958.92 433.781 958.92 434.9V474.102C958.92 475.221 959.847 476.128 960.99 476.128H967.329C968.472 476.128 969.399 475.221 969.399 474.102V434.9C969.399 433.781 968.472 432.874 967.329 432.874Z" fill="#6C63FF"/>
    <path d="M986.95 421.949H980.61C979.467 421.949 978.54 422.85 978.54 423.961V474.115C978.54 475.227 979.467 476.128 980.61 476.128H986.95C988.093 476.128 989.019 475.227 989.019 474.115V423.961C989.019 422.85 988.093 421.949 986.95 421.949Z" fill="#6C63FF"/>
    <path d="M1006.39 411.024H1000.19C999.068 411.024 998.161 411.928 998.161 413.043V474.108C998.161 475.224 999.068 476.128 1000.19 476.128H1006.39C1007.51 476.128 1008.42 475.224 1008.42 474.108V413.043C1008.42 411.928 1007.51 411.024 1006.39 411.024Z" fill="#6C63FF"/>
    <path d="M1025.79 392.072H1019.58C1018.47 392.072 1017.56 392.978 1017.56 394.097V474.103C1017.56 475.221 1018.47 476.128 1019.58 476.128H1025.79C1026.91 476.128 1027.81 475.221 1027.81 474.103V394.097C1027.81 392.978 1026.91 392.072 1025.79 392.072Z" fill="#6C63FF"/>
    <path d="M949.27 447.812H942.93C941.787 447.812 940.86 448.726 940.86 449.852V472.973C940.86 474.1 941.787 475.013 942.93 475.013H949.27C950.413 475.013 951.339 474.1 951.339 472.973V449.852C951.339 448.726 950.413 447.812 949.27 447.812Z" stroke="#3F3D56" stroke-miterlimit="10"/>
    <path d="M968.711 431.536H962.506C961.388 431.536 960.481 432.448 960.481 433.573V472.977C960.481 474.102 961.388 475.013 962.506 475.013H968.711C969.83 475.013 970.737 474.102 970.737 472.977V433.573C970.737 432.448 969.83 431.536 968.711 431.536Z" stroke="#3F3D56" stroke-miterlimit="10"/>
    <path d="M988.153 420.165H982.083C980.988 420.165 980.101 421.078 980.101 422.203V472.976C980.101 474.101 980.988 475.013 982.083 475.013H988.153C989.247 475.013 990.134 474.101 990.134 472.976V422.203C990.134 421.078 989.247 420.165 988.153 420.165Z" stroke="#3F3D56" stroke-miterlimit="10"/>
    <path d="M1007.55 409.463H1001.48C1000.39 409.463 999.499 410.374 999.499 411.497V472.98C999.499 474.103 1000.39 475.013 1001.48 475.013H1007.55C1008.64 475.013 1009.53 474.103 1009.53 472.98V411.497C1009.53 410.374 1008.64 409.463 1007.55 409.463Z" stroke="#3F3D56" stroke-miterlimit="10"/>
    <path d="M1026.95 390.734H1020.88C1019.78 390.734 1018.9 391.643 1018.9 392.764V472.983C1018.9 474.104 1019.78 475.013 1020.88 475.013H1026.95C1028.04 475.013 1028.93 474.104 1028.93 472.983V392.764C1028.93 391.643 1028.04 390.734 1026.95 390.734Z" stroke="#3F3D56" stroke-miterlimit="10"/>
    <defs>
        <filter id="filter0_d" x="301.795" y="177.792" width="156.892" height="117.047" filterUnits="userSpaceOnUse" color-interpolation-filters="sRGB">
            <feFlood flood-opacity="0" result="BackgroundImageFix"/>
            <feColorMatrix in="SourceAlpha" type="matrix" values="0 0 0 0 0 0 0 0 0 0 0 0 0 0 0 0 0 0 127 0"/>
            <feOffset dy="4"/>
            <feGaussianBlur stdDeviation="2"/>
            <feColorMatrix type="matrix" values="0 0 0 0 0 0 0 0 0 0 0 0 0 0 0 0 0 0 0.25 0"/>
            <feBlend mode="normal" in2="BackgroundImageFix" result="effect1_dropShadow"/>
            <feBlend mode="normal" in="SourceGraphic" in2="effect1_dropShadow" result="shape"/>
        </filter>
    </defs>
</svg>

