<svg width="1152" height="700" viewBox="0 0 1152 700" fill="none" xmlns="http://www.w3.org/2000/svg">
<g clip-path="url(#clip0)">
<rect width="1152" height="700" fill="white"/>
<path d="M709.007 552.718C709.007 552.718 959.137 342.073 1103.2 552.718Z" fill="#F2F2F2"/>
<path d="M737.501 433.476H710.076C705.132 433.476 701.123 437.48 701.123 442.419V543.775C701.123 548.714 705.132 552.718 710.076 552.718H737.501C742.446 552.718 746.455 548.714 746.455 543.775V442.419C746.455 437.48 742.446 433.476 737.501 433.476Z" fill="#6C63FF"/>
<path d="M823.043 361.536H795.022C789.97 361.536 785.874 365.545 785.874 370.491V543.763C785.874 548.709 789.97 552.718 795.022 552.718H823.043C828.096 552.718 832.191 548.709 832.191 543.763V370.491C832.191 365.545 828.096 361.536 823.043 361.536Z" fill="#6C63FF"/>
<path d="M909.765 313.248H881.744C876.692 313.248 872.596 317.231 872.596 322.144V543.822C872.596 548.735 876.692 552.718 881.744 552.718H909.765C914.817 552.718 918.913 548.735 918.913 543.822V322.144C918.913 317.231 914.817 313.248 909.765 313.248Z" fill="#6C63FF"/>
<path d="M995.696 264.959H968.271C963.326 264.959 959.318 268.956 959.318 273.886V543.791C959.318 548.722 963.326 552.718 968.271 552.718H995.696C1000.64 552.718 1004.65 548.722 1004.65 543.791V273.886C1004.65 268.956 1000.64 264.959 995.696 264.959Z" fill="#6C63FF"/>
<path d="M1081.43 181.194H1054.01C1049.06 181.194 1045.05 185.2 1045.05 190.143V543.77C1045.05 548.712 1049.06 552.718 1054.01 552.718H1081.43C1086.38 552.718 1090.39 548.712 1090.39 543.77V190.143C1090.39 185.2 1086.38 181.194 1081.43 181.194Z" fill="#6C63FF"/>
<path d="M743.22 427.563H715.199C710.146 427.563 706.05 431.6 706.05 436.58V538.773C706.05 543.754 710.146 547.791 715.199 547.791H743.22C748.272 547.791 752.368 543.754 752.368 538.773V436.58C752.368 431.6 748.272 427.563 743.22 427.563Z" stroke="#3F3D56" stroke-miterlimit="10"/>
<path d="M829.151 355.623H801.726C796.781 355.623 792.772 359.653 792.772 364.624V538.79C792.772 543.761 796.781 547.791 801.726 547.791H829.151C834.096 547.791 838.104 543.761 838.104 538.79V364.624C838.104 359.653 834.096 355.623 829.151 355.623Z" stroke="#3F3D56" stroke-miterlimit="10"/>
<path d="M915.082 305.364H888.253C883.416 305.364 879.494 309.396 879.494 314.37V538.785C879.494 543.759 883.416 547.791 888.253 547.791H915.082C919.919 547.791 923.841 543.759 923.841 538.785V314.37C923.841 309.396 919.919 305.364 915.082 305.364Z" stroke="#3F3D56" stroke-miterlimit="10"/>
<path d="M1000.82 258.061H973.989C969.152 258.061 965.23 262.085 965.23 267.049V538.803C965.23 543.767 969.152 547.791 973.989 547.791H1000.82C1005.66 547.791 1009.58 543.767 1009.58 538.803V267.049C1009.58 262.085 1005.66 258.061 1000.82 258.061Z" stroke="#3F3D56" stroke-miterlimit="10"/>
<path d="M1086.55 175.281H1059.73C1054.89 175.281 1050.97 179.298 1050.97 184.253V538.818C1050.97 543.774 1054.89 547.791 1059.73 547.791H1086.55C1091.39 547.791 1095.31 543.774 1095.31 538.818V184.253C1095.31 179.298 1091.39 175.281 1086.55 175.281Z" stroke="#3F3D56" stroke-miterlimit="10"/>
<path d="M728.716 382.231L815.003 310.54L902.046 261.488L988.332 213.945L1074.62 130.935" stroke="#3F3D56" stroke-miterlimit="10"/>
<path d="M726.253 395.042C730.879 395.042 734.629 391.071 734.629 386.173C734.629 381.275 730.879 377.304 726.253 377.304C721.627 377.304 717.876 381.275 717.876 386.173C717.876 391.071 721.627 395.042 726.253 395.042Z" fill="#F2F2F2"/>
<path d="M812.975 324.088C818.145 324.088 822.337 319.896 822.337 314.726C822.337 309.555 818.145 305.364 812.975 305.364C807.804 305.364 803.613 309.555 803.613 314.726C803.613 319.896 807.804 324.088 812.975 324.088Z" fill="#F2F2F2"/>
<path d="M900.189 272.843C904.543 272.843 908.073 269.313 908.073 264.959C908.073 260.605 904.543 257.076 900.189 257.076C895.835 257.076 892.305 260.605 892.305 264.959C892.305 269.313 895.835 272.843 900.189 272.843Z" fill="#F2F2F2"/>
<path d="M986.418 224.555C991.045 224.555 994.795 221.025 994.795 216.671C994.795 212.317 991.045 208.787 986.418 208.787C981.792 208.787 978.042 212.317 978.042 216.671C978.042 221.025 981.792 224.555 986.418 224.555Z" fill="#F2F2F2"/>
<path d="M1071.66 143.746C1076.02 143.746 1079.55 139.554 1079.55 134.384C1079.55 129.213 1076.02 125.022 1071.66 125.022C1067.31 125.022 1063.78 129.213 1063.78 134.384C1063.78 139.554 1067.31 143.746 1071.66 143.746Z" fill="#F2F2F2"/>
<path d="M729.209 390.115C733.835 390.115 737.586 386.585 737.586 382.231C737.586 377.877 733.835 374.347 729.209 374.347C724.583 374.347 720.833 377.877 720.833 382.231C720.833 386.585 724.583 390.115 729.209 390.115Z" stroke="#3F3D56" stroke-miterlimit="10"/>
<path d="M815.931 319.161C820.557 319.161 824.308 315.41 824.308 310.784C824.308 306.158 820.557 302.407 815.931 302.407C811.305 302.407 807.555 306.158 807.555 310.784C807.555 315.41 811.305 319.161 815.931 319.161Z" stroke="#3F3D56" stroke-miterlimit="10"/>
<path d="M902.16 269.887C906.514 269.887 910.044 266.136 910.044 261.51C910.044 256.884 906.514 253.134 902.16 253.134C897.806 253.134 894.276 256.884 894.276 261.51C894.276 266.136 897.806 269.887 902.16 269.887Z" stroke="#3F3D56" stroke-miterlimit="10"/>
<path d="M987.897 221.598C992.251 221.598 995.78 218.069 995.78 213.715C995.78 209.36 992.251 205.831 987.897 205.831C983.542 205.831 980.013 209.36 980.013 213.715C980.013 218.069 983.542 221.598 987.897 221.598Z" stroke="#3F3D56" stroke-miterlimit="10"/>
<path d="M1073.14 138.818C1077.77 138.818 1081.52 135.068 1081.52 130.442C1081.52 125.816 1077.77 122.065 1073.14 122.065C1068.51 122.065 1064.76 125.816 1064.76 130.442C1064.76 135.068 1068.51 138.818 1073.14 138.818Z" stroke="#3F3D56" stroke-miterlimit="10"/>
<path d="M498.213 145.027C498.213 145.027 508.522 166.883 506.873 173.481C505.907 177.491 506.344 181.711 508.11 185.439L527.079 184.615L544.811 167.707C544.811 167.707 518.007 149.151 519.656 140.079C521.306 131.007 498.213 145.027 498.213 145.027Z" fill="#A0616A"/>
<path d="M546.048 179.666L554.295 230.8C554.295 230.8 554.295 276.985 551.821 277.81C549.347 278.635 538.625 277.81 538.625 277.81V225.851L541.924 180.491L546.048 179.666Z" fill="#6C63FF"/>
<path opacity="0.1" d="M546.048 179.666L554.295 230.8C554.295 230.8 554.295 276.985 551.821 277.81C549.347 278.635 538.625 277.81 538.625 277.81V225.851L541.924 180.491L546.048 179.666Z" fill="black"/>
<path d="M595.532 479.871L602.13 505.438L612.027 498.015L621.099 477.396L609.553 463.376L595.532 479.871Z" fill="#A0616A"/>
<path d="M621.099 474.098C621.099 474.098 610.377 482.345 610.377 490.592C610.377 490.592 604.604 499.664 598.006 498.84V516.159C598.006 516.159 577.388 526.881 593.058 529.355C608.728 531.829 620.274 512.035 620.274 512.035C620.274 512.035 635.119 488.118 632.645 484.819C630.171 481.52 621.099 474.098 621.099 474.098Z" fill="#3F3D56"/>
<path d="M545.986 273.912C545.986 273.912 561.718 291.006 554.295 317.397C554.295 317.397 546.048 376.778 572.439 399.046C598.831 421.314 616.15 469.974 616.15 469.974L596.357 488.118C596.357 488.118 574.914 439.459 552.646 420.49C530.378 401.521 527.903 380.077 527.903 380.077V305.026L523.78 273.686L545.986 273.912Z" fill="#3F3D56"/>
<path opacity="0.1" d="M545.986 273.912C545.986 273.912 561.718 291.006 554.295 317.397C554.295 317.397 546.048 376.778 572.439 399.046C598.831 421.314 616.15 469.974 616.15 469.974L596.357 488.118C596.357 488.118 574.914 439.459 552.646 420.49C530.378 401.521 527.903 380.077 527.903 380.077V305.026L523.78 273.686L545.986 273.912Z" fill="black"/>
<path d="M525.43 498.84L517.182 507.912L520.481 515.334L530.378 518.633L547.697 512.035L545.223 502.139L525.43 498.84Z" fill="#A0616A"/>
<path d="M550.171 507.912C550.171 507.912 530.377 517.809 525.429 513.685C524 512.542 522.823 511.115 521.974 509.494C521.124 507.873 520.621 506.093 520.495 504.267C520.495 504.267 510.584 505.438 503.986 509.561C497.388 513.685 492.44 518.633 484.192 518.633C475.945 518.633 479.244 528.53 494.914 529.355C510.584 530.18 550.171 528.53 550.171 524.406V507.912Z" fill="#3F3D56"/>
<path d="M494.089 284.408C494.089 284.408 483.368 332.243 502.337 386.675C502.337 386.675 511.409 417.191 515.532 426.263C519.656 435.335 523.78 499.664 522.13 502.139C522.13 502.139 535.326 512.86 546.872 505.438C546.872 505.438 546.048 467.5 547.697 464.201C549.347 460.902 550.996 432.036 541.099 408.118C531.202 384.201 539.45 326.469 539.45 326.469C539.45 326.469 559.243 296.779 544.398 279.459L494.089 284.408Z" fill="#3F3D56"/>
<path d="M506.46 150.8C519.214 150.8 529.553 140.461 529.553 127.708C529.553 114.954 519.214 104.615 506.46 104.615C493.707 104.615 483.368 114.954 483.368 127.708C483.368 140.461 493.707 150.8 506.46 150.8Z" fill="#A0616A"/>
<path d="M549.347 278.634C549.347 278.634 542.749 288.531 537.8 283.583C534.312 280.094 511.978 287.674 499.096 292.449C493.702 294.445 489.966 295.954 489.966 295.954C489.966 295.954 489.611 284.523 488.564 270.049C487.359 253.439 485.248 232.804 481.718 220.903C475.12 198.635 491.615 189.563 491.615 189.563C491.615 189.563 505.636 173.068 504.811 170.594C503.986 168.12 541.924 155.749 541.924 155.749C546.048 156.573 549.347 193.686 549.347 193.686C549.347 193.686 541.924 223.377 537.8 241.521C533.677 259.665 549.347 278.634 549.347 278.634Z" fill="#6C63FF"/>
<path d="M478.419 279.459C478.419 279.459 460.275 297.604 451.203 302.552C442.131 307.5 437.182 323.995 444.605 327.294C452.028 330.593 468.522 309.15 468.522 309.15L492.44 289.356L478.419 279.459Z" fill="#A0616A"/>
<path d="M481.848 113.916C479.738 114.104 478.533 116.761 479.213 118.766C479.894 120.772 481.851 122.084 483.85 122.785C485.848 123.486 487.985 123.726 489.986 124.421C491.976 125.148 493.822 126.221 495.441 127.588C501.141 132.257 504.517 139.37 505.591 146.66C506.666 153.95 505.595 161.42 503.569 168.504C502.495 172.257 500.743 176.37 497.074 177.703C501.084 176.713 505.002 175.384 508.787 173.731C511.561 172.425 514.164 170.771 516.968 169.53C521.118 167.837 525.473 166.695 529.92 166.134C533.042 165.647 536.343 165.277 539.275 166.454C541.073 167.291 542.728 168.407 544.178 169.76L553.608 177.685C553.773 174.239 553.881 170.792 553.934 167.343C553.98 164.345 553.968 161.261 552.863 158.473C551.772 155.721 549.701 153.478 548.315 150.862C544.886 144.391 546.003 136.594 546.067 129.271C546.133 121.687 544.913 113.959 541.402 107.238C537.89 100.516 531.896 94.8873 524.585 92.8748C514.73 90.1623 504.341 94.1996 495.283 98.9344C493.152 99.9484 491.165 101.242 489.375 102.781C487.471 104.725 485.854 106.93 484.571 109.33L480.086 116.845" fill="#3F3D56"/>
<path opacity="0.1" d="M540.275 201.934C540.275 201.934 524.605 261.315 522.955 265.439C521.768 268.399 507.797 284.152 499.096 292.449C493.702 294.445 489.966 295.954 489.966 295.954C489.966 295.954 489.611 284.523 488.564 270.049C495.277 262.602 502.337 255.542 502.337 255.542C502.337 255.542 509.759 210.181 508.935 192.862C508.11 175.542 525.429 171.419 525.429 171.419C545.223 173.893 540.275 201.934 540.275 201.934Z" fill="black"/>
<path d="M522.955 168.12C522.955 168.12 505.636 172.244 506.46 189.563C507.285 206.882 499.863 252.243 499.863 252.243C499.863 252.243 471.822 280.284 474.296 283.583C476.77 286.882 487.37 293.368 489.905 294.249C492.44 295.129 518.832 266.264 520.481 262.14C522.131 258.016 537.801 198.635 537.801 198.635C537.801 198.635 542.749 170.594 522.955 168.12Z" fill="#6C63FF"/>
<path d="M440.631 469.739H73V642H440.631V469.739Z" fill="#3F3D56"/>
<path d="M178.038 493.897H96.1084V523.308H178.038V493.897Z" fill="#6C63FF"/>
<path d="M416.472 545.366H116.065V552.718H416.472V545.366Z" fill="#6C63FF"/>
<path d="M416.472 566.373H116.065V574.776H416.472V566.373Z" fill="#6C63FF"/>
<path d="M416.472 588.431H116.065V594.733H416.472V588.431Z" fill="#6C63FF"/>
<path d="M416.472 608.388H116.065V616.791H416.472V608.388Z" fill="#6C63FF"/>
</g>
<path d="M441 156H73V328H441V156Z" fill="#3F3D56"/>
<path d="M178 180H96V209H178V180Z" fill="#6C63FF"/>
<path d="M417 232H116V239H417V232Z" fill="#6C63FF"/>
<path d="M417 252H116V261H417V252Z" fill="#6C63FF"/>
<path d="M417 274H116V281H417V274Z" fill="#6C63FF"/>
<path d="M417 294H116V302H417V294Z" fill="#6C63FF"/>
<defs>
<clipPath id="clip0">
<rect width="1152" height="700" fill="white"/>
</clipPath>
</defs>
</svg>
