<svg width="1127" height="704" viewBox="0 0 1127 704" fill="none" xmlns="http://www.w3.org/2000/svg">
    <g clip-path="url(#clip0)">
        <rect width="1127" height="704" fill="white"/>
        <path d="M193.675 648.639H489.419" stroke="#3F3D56" stroke-miterlimit="10"/>
        <path d="M449.233 516.105C446.18 516.278 443.236 517.297 440.731 519.05C438.225 520.802 436.257 523.218 435.047 526.026C431.5 534.602 436.067 544.676 442.924 550.93C449.78 557.183 458.587 560.758 466.589 565.457C477.337 571.768 486.995 580.528 492.373 591.774C497.751 603.02 498.323 616.95 492.002 627.693C486.134 637.665 475.465 643.633 465.29 649.137" stroke="#3F3D56" stroke-miterlimit="10"/>
        <path d="M458.27 522.94C465.191 522.94 470.801 520.215 470.801 516.852C470.801 513.49 465.191 510.764 458.27 510.764C451.349 510.764 445.738 513.49 445.738 516.852C445.738 520.215 451.349 522.94 458.27 522.94Z" fill="#57B894"/>
        <path d="M468.295 563.049C475.216 563.049 480.826 560.324 480.826 556.961C480.826 553.599 475.216 550.873 468.295 550.873C461.374 550.873 455.763 553.599 455.763 556.961C455.763 560.324 461.374 563.049 468.295 563.049Z" fill="#57B894"/>
        <path d="M445.38 569.496C452.301 569.496 457.912 566.77 457.912 563.407C457.912 560.045 452.301 557.319 445.38 557.319C438.459 557.319 432.849 560.045 432.849 563.407C432.849 566.77 438.459 569.496 445.38 569.496Z" fill="#57B894"/>
        <path d="M481.184 603.158C488.105 603.158 493.716 600.433 493.716 597.07C493.716 593.708 488.105 590.982 481.184 590.982C474.263 590.982 468.653 593.708 468.653 597.07C468.653 600.433 474.263 603.158 481.184 603.158Z" fill="#57B894"/>
        <path d="M506.248 603.158C513.169 603.158 518.779 600.433 518.779 597.07C518.779 593.708 513.169 590.982 506.248 590.982C499.327 590.982 493.716 593.708 493.716 597.07C493.716 600.433 499.327 603.158 506.248 603.158Z" fill="#57B894"/>
        <path d="M382.078 279.698H389.138C389.138 279.698 395.609 329.714 390.903 334.421C386.197 339.129 373.254 342.071 371.489 334.421C369.724 326.772 371.489 298.527 371.489 298.527L382.078 279.698Z" fill="#6C63FF"/>
        <path d="M335.897 286.465C359.615 286.465 378.843 263.94 378.843 236.155C378.843 208.369 359.615 185.844 335.897 185.844C312.178 185.844 292.951 208.369 292.951 236.155C292.951 263.94 312.178 286.465 335.897 286.465Z" fill="#2F2E41"/>
        <path d="M326.19 245.569C326.19 245.569 328.543 264.987 321.483 269.106C314.424 273.225 329.72 296.762 329.72 296.762L347.957 301.47L360.311 284.405L357.958 266.753C357.958 266.753 343.839 252.63 350.31 239.685L326.19 245.569Z" fill="#FFC1C7"/>
        <path opacity="0.1" d="M326.19 245.569C326.19 245.569 328.543 264.987 321.483 269.106C314.424 273.225 329.72 296.762 329.72 296.762L347.957 301.47L360.311 284.405L357.958 266.753C357.958 266.753 343.839 252.63 350.31 239.685L326.19 245.569Z" fill="black"/>
        <path d="M299.716 456.354C299.716 456.354 292.657 520.492 299.716 535.791C306.776 551.09 325.602 594.045 325.602 594.045L319.718 606.402L335.603 602.872L342.074 590.515C342.074 590.515 334.426 560.505 333.249 549.914C332.073 539.322 323.248 519.904 323.248 519.904L339.721 449.882L299.716 456.354Z" fill="#FFC1C7"/>
        <path d="M355.605 445.633C355.605 445.633 356.193 510.36 360.311 520.4L357.958 608.075L370.901 609.803C370.901 609.803 389.726 536.25 386.785 518.598C383.844 500.945 387.373 437.395 387.373 437.395L355.605 445.633Z" fill="#FFC1C7"/>
        <path d="M335.897 253.513C348.243 253.513 358.252 243.502 358.252 231.153C358.252 218.804 348.243 208.793 335.897 208.793C323.55 208.793 313.541 218.804 313.541 231.153C313.541 243.502 323.55 253.513 335.897 253.513Z" fill="#FFC1C7"/>
        <path d="M412.082 453.871C412.082 453.871 396.198 464.463 389.727 456.813C383.255 449.164 303.834 461.521 293.833 459.167C283.832 456.813 299.128 419.154 299.128 399.736C299.128 385.208 304.399 363.107 307.052 352.892C307.947 349.455 308.541 347.367 308.541 347.367C308.541 347.367 314.577 330.19 313.447 323.053C313.371 322.512 313.222 321.984 313.006 321.482C312.912 321.272 312.795 321.073 312.659 320.887C309.841 317.127 301.764 289.707 298.628 277.933C298.116 276.19 297.694 274.423 297.363 272.637C297.363 270.872 319.13 265.576 324.572 265.323C330.02 265.07 331.485 272.637 331.485 272.637C333.25 273.814 341.486 294.408 341.486 294.408L349.134 274.991C349.134 274.991 348.545 270.872 347.957 270.872C347.369 270.872 356.658 265.317 356.658 265.317C356.658 265.317 366.194 272.048 371.489 270.872C376.784 269.695 389.138 280.286 389.138 280.286C389.138 280.286 367.371 335.01 376.196 346.778C385.02 358.547 412.082 453.871 412.082 453.871Z" fill="#6C63FF"/>
        <path d="M340.309 588.161C340.309 588.161 330.308 598.164 330.308 599.341L322.072 595.81C322.072 595.81 318.542 608.756 317.953 610.521C317.365 612.286 307.364 628.174 297.363 635.235C287.362 642.296 297.363 651.122 306.187 649.357C315.012 647.592 337.367 627.585 337.367 627.585C337.367 627.585 352.663 627.585 357.958 615.817C357.958 615.817 343.839 586.984 340.309 588.161Z" fill="#2F2E41"/>
        <path d="M369.724 605.133C369.724 605.133 354.611 594.149 353.637 604.348C352.663 614.547 352.663 636.908 352.663 636.908C352.663 636.908 347.957 651.618 362.664 649.853C377.372 648.088 378.549 643.969 378.549 643.969L371.489 615.724V603.367L369.724 605.133Z" fill="#2F2E41"/>
        <path opacity="0.1" d="M312.659 320.888C309.841 317.127 301.764 289.707 298.628 277.933H301.481C301.481 277.933 308.647 305.983 313.006 321.482C312.912 321.272 312.795 321.073 312.659 320.888Z" fill="black"/>
        <path opacity="0.1" d="M351.487 359.724C351.487 359.724 343.25 360.312 313.247 354.428C311.156 354.026 309.088 353.513 307.052 352.892C307.946 349.456 308.541 347.367 308.541 347.367C308.541 347.367 314.577 330.191 313.447 323.053C314.853 327.996 315.9 331.332 316.189 331.479C317.365 332.068 355.017 338.54 360.311 340.894C365.606 343.248 351.487 359.724 351.487 359.724Z" fill="black"/>
        <path opacity="0.1" d="M362.076 282.711C362.076 282.711 378.303 280.709 379.308 283.34C380.314 285.972 384.432 311.404 386.197 314.665C387.962 317.925 388.55 338.141 381.49 338.793C374.431 339.445 365.018 332.272 366.783 326.403C368.548 320.534 362.076 282.711 362.076 282.711Z" fill="black"/>
        <path d="M353.84 336.775C353.84 336.775 378.549 339.717 382.667 336.775C386.785 333.833 403.846 333.833 400.316 342.071C396.786 350.309 366.194 350.897 366.194 350.897H348.545L353.84 336.775Z" fill="#FFC1C7"/>
        <path d="M301.481 273.814H297.363C297.363 273.814 289.127 275.579 290.303 301.47C291.48 327.36 283.244 344.424 313.247 350.309C343.25 356.193 351.487 355.605 351.487 355.605C351.487 355.605 365.606 339.129 360.311 336.775C355.016 334.421 317.365 327.949 316.189 327.36C315.012 326.772 301.481 273.814 301.481 273.814Z" fill="#6C63FF"/>
        <path d="M378.856 285.428C378.856 285.428 368.547 246.746 360.311 246.746C352.075 246.746 342.662 248.511 349.722 256.161C356.781 263.81 365.606 272.048 366.194 276.167C366.783 280.286 369.136 286.171 369.136 286.171L378.856 285.428Z" fill="#FFC1C7"/>
        <path d="M364.429 282.711C364.429 282.711 380.656 280.709 381.662 283.34C382.667 285.972 386.785 311.404 388.55 314.665C390.315 317.925 390.903 338.141 383.843 338.793C376.784 339.445 367.371 332.272 369.136 326.403C370.901 320.534 364.429 282.711 364.429 282.711Z" fill="#6C63FF"/>
        <path d="M330.014 231.153C341.711 231.153 351.193 221.669 351.193 209.97C351.193 198.271 341.711 188.787 330.014 188.787C318.317 188.787 308.835 198.271 308.835 209.97C308.835 221.669 318.317 231.153 330.014 231.153Z" fill="#2F2E41"/>
        <path d="M390 217C393.314 217 396 214.314 396 211C396 207.686 393.314 205 390 205C386.686 205 384 207.686 384 211C384 214.314 386.686 217 390 217Z" fill="#F2F2F2"/>
        <path d="M549 187C561.703 187 572 176.703 572 164C572 151.297 561.703 141 549 141C536.297 141 526 151.297 526 164C526 176.703 536.297 187 549 187Z" fill="#F2F2F2"/>
        <path d="M498.5 190C507.613 190 515 182.613 515 173.5C515 164.387 507.613 157 498.5 157C489.387 157 482 164.387 482 173.5C482 182.613 489.387 190 498.5 190Z" fill="#F2F2F2"/>
        <path d="M456 201C463.732 201 470 194.732 470 187C470 179.268 463.732 173 456 173C448.268 173 442 179.268 442 187C442 194.732 448.268 201 456 201Z" fill="#F2F2F2"/>
        <path d="M417 210C422.523 210 427 205.523 427 200C427 194.477 422.523 190 417 190C411.477 190 407 194.477 407 200C407 205.523 411.477 210 417 210Z" fill="#F2F2F2"/>
        <path d="M726.265 39.7713C805.888 16.1759 889.27 44.3997 929.738 110.387C951.131 145.272 959.828 189.889 931.004 242.497C879.478 336.539 795.102 316.321 748.45 295.258C725.886 285.096 701.753 278.115 676.751 274.519C631.767 268.002 566.394 243.351 595.022 153.041C615.771 87.5839 673.228 55.4881 726.265 39.7713Z" fill="#F2F2F2"/>
        <path opacity="0.1" d="M828.081 100.584L846.564 82.1748L828.081 63.766L833.716 58.1552L857.835 82.1748L833.716 106.194L828.081 100.584Z" fill="black"/>
        <path opacity="0.1" d="M775.297 83.4883H782.81V75.9822H775.297V83.4883ZM813.016 75.9822H805.502V83.4883H813.016V75.9822ZM790.399 83.4883H797.913V75.9822H790.399V83.4883Z" fill="black"/>
        <path opacity="0.1" d="M765.115 100.396L746.613 81.9872L765.097 63.5784L759.461 57.9675L735.361 81.9872L759.48 106.007L765.115 100.396Z" fill="black"/>
        <path d="M855.493 77.213C855.493 77.213 849.71 72.8264 849.271 74.4344C848.832 76.0424 853.514 79.6969 853.514 79.6969L855.493 77.213Z" fill="#FFB9B9"/>
        <path opacity="0.1" d="M855.493 77.213C855.493 77.213 849.71 72.8264 849.271 74.4344C848.832 76.0424 853.514 79.6969 853.514 79.6969L855.493 77.213Z" fill="black"/>
        <path d="M828.081 97.0182L846.564 78.6094L828.081 60.2006L833.716 54.5897L857.835 78.6094L833.716 102.629L828.081 97.0182Z" fill="#6C63FF"/>
        <path d="M775.297 79.9229H782.81V72.4167H775.297V79.9229ZM813.016 72.4167H805.502V79.9229H813.016V72.4167ZM790.399 79.9229H797.913V72.4167H790.399V79.9229Z" fill="#6C63FF"/>
        <path d="M765.115 96.8305L746.613 78.4217L765.097 60.0129L759.461 54.4021L735.361 78.4217L759.48 102.441L765.115 96.8305Z" fill="#6C63FF"/>
        <path opacity="0.1" d="M828.081 158.48L846.564 140.072L828.081 121.663L833.716 116.052L857.835 140.072L833.716 164.091L828.081 158.48Z" fill="black"/>
        <path opacity="0.1" d="M775.297 141.385H782.81V133.879H775.297V141.385ZM813.016 133.879H805.502V141.385H813.016V133.879ZM790.399 141.385H797.913V133.879H790.399V141.385Z" fill="black"/>
        <path opacity="0.1" d="M765.115 158.293L746.613 139.884L765.097 121.475L759.461 115.864L735.361 139.884L759.48 163.904L765.115 158.293Z" fill="black"/>
        <path d="M855.493 135.11C855.493 135.11 849.71 130.723 849.271 132.331C848.832 133.939 853.514 137.594 853.514 137.594L855.493 135.11Z" fill="#FFB9B9"/>
        <path opacity="0.1" d="M855.493 135.11C855.493 135.11 849.71 130.723 849.271 132.331C848.832 133.939 853.514 137.594 853.514 137.594L855.493 135.11Z" fill="black"/>
        <path d="M828.081 154.915L846.564 136.506L828.081 118.097L833.716 112.487L857.835 136.506L833.716 160.526L828.081 154.915Z" fill="#6C63FF"/>
        <path d="M775.297 137.82H782.81V130.314H775.297V137.82ZM813.016 130.314H805.502V137.82H813.016V130.314ZM790.399 137.82H797.913V130.314H790.399V137.82Z" fill="#6C63FF"/>
        <path d="M765.115 154.727L746.613 136.319L765.097 117.91L759.461 112.299L735.361 136.319L759.48 160.338L765.115 154.727Z" fill="#6C63FF"/>
        <path opacity="0.1" d="M825.854 216.377L844.338 197.969L825.854 179.56L831.489 173.949L855.608 197.969L831.489 221.988L825.854 216.377Z" fill="black"/>
        <path opacity="0.1" d="M773.07 199.282H780.583V191.776H773.07V199.282ZM810.789 191.776H803.275V199.282H810.789V191.776ZM788.172 199.282H795.686V191.776H788.172V199.282Z" fill="black"/>
        <path opacity="0.1" d="M762.889 216.19L744.386 197.781L762.87 179.372L757.234 173.761L733.134 197.781L757.253 221.801L762.889 216.19Z" fill="black"/>
        <path d="M853.266 193.007C853.266 193.007 847.483 188.62 847.044 190.228C846.605 191.836 851.288 195.491 851.288 195.491L853.266 193.007Z" fill="#FFB9B9"/>
        <path opacity="0.1" d="M853.266 193.007C853.266 193.007 847.483 188.62 847.044 190.228C846.605 191.836 851.288 195.491 851.288 195.491L853.266 193.007Z" fill="black"/>
        <path d="M825.854 212.812L844.338 194.403L825.854 175.994L831.489 170.383L855.608 194.403L831.489 218.423L825.854 212.812Z" fill="#6C63FF"/>
        <path d="M773.07 195.717H780.583V188.21H773.07V195.717ZM810.789 188.21H803.275V195.717H810.789V188.21ZM788.172 195.717H795.686V188.21H788.172V195.717Z" fill="#6C63FF"/>
        <path d="M762.889 212.624L744.386 194.215L762.87 175.807L757.234 170.196L733.134 194.215L757.253 218.235L762.889 212.624Z" fill="#6C63FF"/>
        <path opacity="0.1" d="M825.854 274.274L844.338 255.865L825.854 237.457L831.489 231.846L855.608 255.865L831.489 279.885L825.854 274.274Z" fill="black"/>
        <path opacity="0.1" d="M773.07 257.179H780.583V249.673H773.07V257.179ZM810.789 249.673H803.275V257.179H810.789V249.673ZM788.172 257.179H795.686V249.673H788.172V257.179Z" fill="black"/>
        <path opacity="0.1" d="M762.889 274.087L744.386 255.678L762.87 237.269L757.234 231.658L733.134 255.678L757.253 279.697L762.889 274.087Z" fill="black"/>
        <path d="M853.266 250.904C853.266 250.904 847.483 246.517 847.044 248.125C846.605 249.733 851.288 253.388 851.288 253.388L853.266 250.904Z" fill="#FFB9B9"/>
        <path opacity="0.1" d="M853.266 250.904C853.266 250.904 847.483 246.517 847.044 248.125C846.605 249.733 851.288 253.388 851.288 253.388L853.266 250.904Z" fill="black"/>
        <path d="M825.854 270.709L844.338 252.3L825.854 233.891L831.489 228.28L855.608 252.3L831.489 276.32L825.854 270.709Z" fill="#6C63FF"/>
        <path d="M773.07 253.614H780.583V246.107H773.07V253.614ZM810.789 246.107H803.275V253.614H810.789V246.107ZM788.172 253.614H795.686V246.107H788.172V253.614Z" fill="#6C63FF"/>
        <path d="M762.889 270.521L744.386 252.112L762.87 233.704L757.234 228.093L733.134 252.112L757.253 276.132L762.889 270.521Z" fill="#6C63FF"/>
    </g>
    <defs>
        <clipPath id="clip0">
            <rect width="1127" height="704" fill="white"/>
        </clipPath>
    </defs>
</svg>
