<svg width="1152" height="700" viewBox="0 0 1152 700" fill="none" xmlns="http://www.w3.org/2000/svg">
    <rect width="1152" height="700" fill="white"/>
    <path d="M846.784 138.608C846.784 138.608 966.849 37.4957 1036 138.608Z" fill="#F2F2F2"/>
    <path d="M860.462 81.3701H847.298C844.924 81.3701 843 83.2922 843 85.6631V134.315C843 136.686 844.924 138.608 847.298 138.608H860.462C862.836 138.608 864.76 136.686 864.76 134.315V85.6631C864.76 83.2922 862.836 81.3701 860.462 81.3701Z" fill="#6C63FF"/>
    <path d="M901.523 46.8383H888.073C885.647 46.8383 883.681 48.7628 883.681 51.1367V134.309C883.681 136.683 885.647 138.608 888.073 138.608H901.523C903.948 138.608 905.914 136.683 905.914 134.309V51.1367C905.914 48.7628 903.948 46.8383 901.523 46.8383Z" fill="#6C63FF"/>
    <path d="M863.207 78.5319H849.756C847.331 78.5319 845.365 80.4698 845.365 82.8604V131.914C845.365 134.305 847.331 136.243 849.756 136.243H863.207C865.632 136.243 867.598 134.305 867.598 131.914V82.8604C867.598 80.4698 865.632 78.5319 863.207 78.5319Z" stroke="#3F3D56" stroke-miterlimit="10"/>
    <path d="M904.455 44H891.29C888.917 44 886.993 45.9344 886.993 48.3206V131.922C886.993 134.308 888.917 136.243 891.29 136.243H904.455C906.828 136.243 908.752 134.308 908.752 131.922V48.3206C908.752 45.9344 906.828 44 904.455 44Z" stroke="#3F3D56" stroke-miterlimit="10"/>
    <path d="M846.784 389.174C846.784 389.174 966.849 288.062 1036 389.174Z" fill="#F2F2F2"/>
    <path d="M860.462 331.936H847.298C844.924 331.936 843 333.858 843 336.229V384.881C843 387.252 844.924 389.174 847.298 389.174H860.462C862.836 389.174 864.76 387.252 864.76 384.881V336.229C864.76 333.858 862.836 331.936 860.462 331.936Z" fill="#6C63FF"/>
    <path d="M901.523 297.404H888.073C885.647 297.404 883.681 299.329 883.681 301.703V384.876C883.681 387.25 885.647 389.174 888.073 389.174H901.523C903.948 389.174 905.914 387.25 905.914 384.876V301.703C905.914 299.329 903.948 297.404 901.523 297.404Z" fill="#6C63FF"/>
    <path d="M943.151 274.226H929.7C927.275 274.226 925.309 276.137 925.309 278.496V384.904C925.309 387.262 927.275 389.174 929.7 389.174H943.151C945.576 389.174 947.542 387.262 947.542 384.904V278.496C947.542 276.137 945.576 274.226 943.151 274.226Z" fill="#6C63FF"/>
    <path d="M984.398 251.047H971.234C968.86 251.047 966.936 252.965 966.936 255.332V384.889C966.936 387.256 968.86 389.174 971.234 389.174H984.398C986.772 389.174 988.696 387.256 988.696 384.889V255.332C988.696 252.965 986.772 251.047 984.398 251.047Z" fill="#6C63FF"/>
    <path d="M1025.55 210.838H1012.39C1010.01 210.838 1008.09 212.761 1008.09 215.134V384.879C1008.09 387.251 1010.01 389.174 1012.39 389.174H1025.55C1027.93 389.174 1029.85 387.251 1029.85 384.879V215.134C1029.85 212.761 1027.93 210.838 1025.55 210.838Z" fill="#6C63FF"/>
    <path d="M863.207 329.098H849.756C847.331 329.098 845.365 331.036 845.365 333.427V382.48C845.365 384.871 847.331 386.809 849.756 386.809H863.207C865.632 386.809 867.598 384.871 867.598 382.48V333.427C867.598 331.036 865.632 329.098 863.207 329.098Z" stroke="#3F3D56" stroke-miterlimit="10"/>
    <path d="M904.455 294.566H891.29C888.917 294.566 886.993 296.501 886.993 298.887V382.488C886.993 384.874 888.917 386.809 891.29 386.809H904.455C906.828 386.809 908.752 384.874 908.752 382.488V298.887C908.752 296.501 906.828 294.566 904.455 294.566Z" stroke="#3F3D56" stroke-miterlimit="10"/>
    <path d="M945.703 270.441H932.824C930.502 270.441 928.62 272.377 928.62 274.764V382.486C928.62 384.873 930.502 386.809 932.824 386.809H945.703C948.025 386.809 949.907 384.873 949.907 382.486V274.764C949.907 272.377 948.025 270.441 945.703 270.441Z" stroke="#3F3D56" stroke-miterlimit="10"/>
    <path d="M986.857 247.735H973.979C971.657 247.735 969.775 249.667 969.775 252.05V382.495C969.775 384.877 971.657 386.809 973.979 386.809H986.857C989.179 386.809 991.061 384.877 991.061 382.495V252.05C991.061 249.667 989.179 247.735 986.857 247.735Z" stroke="#3F3D56" stroke-miterlimit="10"/>
    <path d="M1028.01 208H1015.13C1012.81 208 1010.93 209.928 1010.93 212.307V382.502C1010.93 384.881 1012.81 386.809 1015.13 386.809H1028.01C1030.33 386.809 1032.22 384.881 1032.22 382.502V212.307C1032.22 209.928 1030.33 208 1028.01 208Z" stroke="#3F3D56" stroke-miterlimit="10"/>
    <path d="M843.784 663.718C843.784 663.718 963.85 562.606 1033 663.718Z" fill="#F2F2F2"/>
    <path d="M857.462 606.48H844.298C841.924 606.48 840 608.403 840 610.773V659.425C840 661.796 841.924 663.718 844.298 663.718H857.462C859.836 663.718 861.76 661.796 861.76 659.425V610.773C861.76 608.403 859.836 606.48 857.462 606.48Z" fill="#6C63FF"/>
    <path d="M898.523 571.948H885.073C882.647 571.948 880.681 573.873 880.681 576.247V659.42C880.681 661.794 882.647 663.718 885.073 663.718H898.523C900.948 663.718 902.914 661.794 902.914 659.42V576.247C902.914 573.873 900.948 571.948 898.523 571.948Z" fill="#6C63FF"/>
    <path d="M940.151 548.77H926.7C924.275 548.77 922.309 550.681 922.309 553.04V659.448C922.309 661.806 924.275 663.718 926.7 663.718H940.151C942.576 663.718 944.542 661.806 944.542 659.448V553.04C944.542 550.681 942.576 548.77 940.151 548.77Z" fill="#6C63FF"/>
    <path d="M981.398 525.591H968.234C965.86 525.591 963.936 527.509 963.936 529.876V659.433C963.936 661.8 965.86 663.718 968.234 663.718H981.398C983.772 663.718 985.696 661.8 985.696 659.433V529.876C985.696 527.509 983.772 525.591 981.398 525.591Z" fill="#6C63FF"/>
    <path d="M1022.55 485.382H1009.39C1007.01 485.382 1005.09 487.305 1005.09 489.678V659.423C1005.09 661.795 1007.01 663.718 1009.39 663.718H1022.55C1024.93 663.718 1026.85 661.795 1026.85 659.423V489.678C1026.85 487.305 1024.93 485.382 1022.55 485.382Z" fill="#6C63FF"/>
    <path d="M860.207 603.642H846.756C844.331 603.642 842.365 605.58 842.365 607.971V657.024C842.365 659.415 844.331 661.353 846.756 661.353H860.207C862.632 661.353 864.598 659.415 864.598 657.024V607.971C864.598 605.58 862.632 603.642 860.207 603.642Z" stroke="#3F3D56" stroke-miterlimit="10"/>
    <path d="M901.455 569.11H888.29C885.917 569.11 883.993 571.045 883.993 573.431V657.032C883.993 659.418 885.917 661.353 888.29 661.353H901.455C903.828 661.353 905.752 659.418 905.752 657.032V573.431C905.752 571.045 903.828 569.11 901.455 569.11Z" stroke="#3F3D56" stroke-miterlimit="10"/>
    <path d="M942.703 544.985H929.824C927.502 544.985 925.62 546.921 925.62 549.308V657.03C925.62 659.418 927.502 661.353 929.824 661.353H942.703C945.025 661.353 946.907 659.418 946.907 657.03V549.308C946.907 546.921 945.025 544.985 942.703 544.985Z" stroke="#3F3D56" stroke-miterlimit="10"/>
    <path d="M983.857 522.279H970.979C968.657 522.279 966.775 524.211 966.775 526.594V657.039C966.775 659.421 968.657 661.353 970.979 661.353H983.857C986.179 661.353 988.061 659.421 988.061 657.039V526.594C988.061 524.211 986.179 522.279 983.857 522.279Z" stroke="#3F3D56" stroke-miterlimit="10"/>
    <path d="M1025.01 482.544H1012.13C1009.81 482.544 1007.93 484.472 1007.93 486.851V657.046C1007.93 659.425 1009.81 661.353 1012.13 661.353H1025.01C1027.33 661.353 1029.22 659.425 1029.22 657.046V486.851C1029.22 484.472 1027.33 482.544 1025.01 482.544Z" stroke="#3F3D56" stroke-miterlimit="10"/>
    <path d="M853.245 581.882L894.663 547.47L936.445 523.924L977.863 501.103L1019.28 461.257" stroke="#3F3D56" stroke-miterlimit="10"/>
    <path d="M852.063 588.032C854.283 588.032 856.083 586.126 856.083 583.775C856.083 581.423 854.283 579.517 852.063 579.517C849.842 579.517 848.042 581.423 848.042 583.775C848.042 586.126 849.842 588.032 852.063 588.032Z" fill="#F2F2F2"/>
    <path d="M893.69 553.973C896.172 553.973 898.184 551.961 898.184 549.479C898.184 546.997 896.172 544.985 893.69 544.985C891.208 544.985 889.196 546.997 889.196 549.479C889.196 551.961 891.208 553.973 893.69 553.973Z" fill="#F2F2F2"/>
    <path d="M935.554 529.375C937.644 529.375 939.338 527.681 939.338 525.591C939.338 523.501 937.644 521.806 935.554 521.806C933.464 521.806 931.77 523.501 931.77 525.591C931.77 527.681 933.464 529.375 935.554 529.375Z" fill="#F2F2F2"/>
    <path d="M976.945 506.196C979.166 506.196 980.966 504.502 980.966 502.412C980.966 500.322 979.166 498.627 976.945 498.627C974.724 498.627 972.924 500.322 972.924 502.412C972.924 504.502 974.724 506.196 976.945 506.196Z" fill="#F2F2F2"/>
    <path d="M1017.86 467.407C1019.95 467.407 1021.65 465.395 1021.65 462.913C1021.65 460.431 1019.95 458.419 1017.86 458.419C1015.77 458.419 1014.08 460.431 1014.08 462.913C1014.08 465.395 1015.77 467.407 1017.86 467.407Z" fill="#F2F2F2"/>
    <path d="M853.482 585.667C855.702 585.667 857.502 583.972 857.502 581.882C857.502 579.792 855.702 578.098 853.482 578.098C851.261 578.098 849.461 579.792 849.461 581.882C849.461 583.972 851.261 585.667 853.482 585.667Z" stroke="#3F3D56" stroke-miterlimit="10"/>
    <path d="M895.109 551.608C897.33 551.608 899.13 549.808 899.13 547.587C899.13 545.366 897.33 543.566 895.109 543.566C892.888 543.566 891.088 545.366 891.088 547.587C891.088 549.808 892.888 551.608 895.109 551.608Z" stroke="#3F3D56" stroke-miterlimit="10"/>
    <path d="M936.5 527.956C938.59 527.956 940.284 526.156 940.284 523.935C940.284 521.714 938.59 519.914 936.5 519.914C934.41 519.914 932.716 521.714 932.716 523.935C932.716 526.156 934.41 527.956 936.5 527.956Z" stroke="#3F3D56" stroke-miterlimit="10"/>
    <path d="M977.654 504.777C979.744 504.777 981.439 503.083 981.439 500.993C981.439 498.903 979.744 497.208 977.654 497.208C975.564 497.208 973.87 498.903 973.87 500.993C973.87 503.083 975.564 504.777 977.654 504.777Z" stroke="#3F3D56" stroke-miterlimit="10"/>
    <path d="M1018.57 465.042C1020.79 465.042 1022.59 463.241 1022.59 461.021C1022.59 458.8 1020.79 457 1018.57 457C1016.35 457 1014.55 458.8 1014.55 461.021C1014.55 463.241 1016.35 465.042 1018.57 465.042Z" stroke="#3F3D56" stroke-miterlimit="10"/>
    <path d="M467 23H117V187H467V23Z" fill="#3F3D56"/>
    <path d="M217 46H139V74H217V46Z" fill="#6C63FF"/>
    <path d="M444 95H158V102H444V95Z" fill="#6C63FF"/>
    <path d="M444 115H158V123H444V115Z" fill="#6C63FF"/>
    <path d="M444 136H158V142H444V136Z" fill="#6C63FF"/>
    <path d="M444 155H158V163H444V155Z" fill="#6C63FF"/>
    <path d="M467 259H117V423H467V259Z" fill="#3F3D56"/>
    <path d="M217 282H139V310H217V282Z" fill="#6C63FF"/>
    <path d="M444 331H158V338H444V331Z" fill="#6C63FF"/>
    <path d="M444 351H158V359H444V351Z" fill="#6C63FF"/>
    <path d="M444 372H158V378H444V372Z" fill="#6C63FF"/>
    <path d="M444 391H158V399H444V391Z" fill="#6C63FF"/>
    <path d="M467 513H117V677H467V513Z" fill="#3F3D56"/>
    <path d="M217 536H139V564H217V536Z" fill="#6C63FF"/>
    <path d="M444 585H158V592H444V585Z" fill="#6C63FF"/>
    <path d="M444 605H158V613H444V605Z" fill="#6C63FF"/>
    <path d="M444 626H158V632H444V626Z" fill="#6C63FF"/>
    <path d="M444 645H158V653H444V645Z" fill="#6C63FF"/>
    <path d="M715.136 95.4893L711.244 97.3627L679.806 112.522L677.032 113.851C676.841 113.941 676.635 113.991 676.425 113.999C676.214 114.007 676.005 113.971 675.809 113.895C675.613 113.819 675.434 113.704 675.284 113.557C675.133 113.409 675.015 113.233 674.935 113.038C674.861 112.856 674.824 112.661 674.824 112.465V103.51C674.824 103.101 674.662 102.708 674.374 102.418C674.086 102.127 673.695 101.963 673.286 101.96H596.55C596.141 101.96 595.748 101.798 595.458 101.51C595.167 101.221 595.003 100.83 595 100.421V87.7766C595 87.3655 595.163 86.9712 595.454 86.6805C595.745 86.3898 596.139 86.2265 596.55 86.2265H673.286C673.693 86.2236 674.082 86.0605 674.37 85.7725C674.658 85.4845 674.821 85.0948 674.824 84.6875V75.5332C674.824 75.3367 674.861 75.1419 674.935 74.9597C675.015 74.7648 675.134 74.5884 675.285 74.4412C675.436 74.2939 675.615 74.179 675.812 74.1033C676.008 74.0277 676.218 73.9929 676.429 74.0012C676.639 74.0095 676.846 74.0606 677.036 74.1514L679.806 75.5L711.244 90.8192L715.143 92.7125C715.401 92.8414 715.618 93.0399 715.769 93.2856C715.921 93.5312 716.001 93.8143 716 94.1029C715.999 94.3916 715.918 94.6743 715.765 94.9192C715.613 95.1642 715.395 95.3616 715.136 95.4893V95.4893Z" fill="#6C63FF"/>
    <path d="M715.136 335.489L711.244 337.363L679.806 352.522L677.032 353.851C676.841 353.941 676.635 353.991 676.425 353.999C676.214 354.007 676.005 353.971 675.809 353.895C675.613 353.819 675.434 353.704 675.284 353.557C675.133 353.409 675.015 353.233 674.935 353.038C674.861 352.856 674.824 352.661 674.824 352.465V343.51C674.824 343.101 674.662 342.708 674.374 342.418C674.086 342.127 673.695 341.963 673.286 341.96H596.55C596.141 341.96 595.748 341.798 595.458 341.51C595.167 341.221 595.003 340.83 595 340.421V327.777C595 327.365 595.163 326.971 595.454 326.681C595.745 326.39 596.139 326.227 596.55 326.227H673.286C673.693 326.224 674.082 326.061 674.37 325.773C674.658 325.485 674.821 325.095 674.824 324.688V315.533C674.824 315.337 674.861 315.142 674.935 314.96C675.015 314.765 675.134 314.588 675.285 314.441C675.436 314.294 675.615 314.179 675.812 314.103C676.008 314.028 676.218 313.993 676.429 314.001C676.639 314.009 676.846 314.061 677.036 314.151L679.806 315.5L711.244 330.819L715.143 332.712C715.401 332.841 715.618 333.04 715.769 333.286C715.921 333.531 716.001 333.814 716 334.103C715.999 334.392 715.918 334.674 715.765 334.919C715.613 335.164 715.395 335.362 715.136 335.489V335.489Z" fill="#6C63FF"/>
    <path d="M715.136 588.489L711.244 590.363L679.806 605.522L677.032 606.851C676.841 606.941 676.635 606.991 676.425 606.999C676.214 607.007 676.005 606.971 675.809 606.895C675.613 606.819 675.434 606.704 675.284 606.557C675.133 606.409 675.015 606.233 674.935 606.038C674.861 605.856 674.824 605.661 674.824 605.465V596.51C674.824 596.101 674.662 595.708 674.374 595.418C674.086 595.127 673.695 594.963 673.286 594.96H596.55C596.141 594.96 595.748 594.798 595.458 594.51C595.167 594.221 595.003 593.83 595 593.421V580.777C595 580.365 595.163 579.971 595.454 579.681C595.745 579.39 596.139 579.227 596.55 579.227H673.286C673.693 579.224 674.082 579.061 674.37 578.773C674.658 578.485 674.821 578.095 674.824 577.688V568.533C674.824 568.337 674.861 568.142 674.935 567.96C675.015 567.765 675.134 567.588 675.285 567.441C675.436 567.294 675.615 567.179 675.812 567.103C676.008 567.028 676.218 566.993 676.429 567.001C676.639 567.009 676.846 567.061 677.036 567.151L679.806 568.5L711.244 583.819L715.143 585.712C715.401 585.841 715.618 586.04 715.769 586.286C715.921 586.531 716.001 586.814 716 587.103C715.999 587.392 715.918 587.674 715.765 587.919C715.613 588.164 715.395 588.362 715.136 588.489V588.489Z" fill="#6C63FF"/>
</svg>
